# AST/ASF file generated using VICON BodyLanguage
# -----------------------------------------------
:version 1.10
:name VICON
:units
  mass 1.0
  length 0.45
  angle deg
:documentation
   .ast/.asf automatically generated from VICON data using
   VICON BodyBuilder and BodyLanguage model FoxedUp or BRILLIANT.MOD
:root
   order TX TY TZ RX RY RZ
   axis XYZ
   position 0 0 0  
   orientation 0 0 0 
:bonedata
  begin
     id 1 
     name lhipjoint
     direction 0.822369 -0.411937 0.392449 
     length 3.8167 
     axis 0 0 0  XYZ
  end
  begin
     id 2 
     name lfemur
     direction 0.34202 -0.939693 0  
     length 6.16791  
     axis 0 0 20  XYZ
    dof rx ry rz
    limits (-160.0 20.0)
           (-70.0 70.0)
           (-60.0 70.0)
  end
  begin
     id 3 
     name ltibia
     direction 0.34202 -0.939693 0   
     length 7.07101   
     axis 0 0 20   XYZ
    dof rx
    limits (-10.0 170.0)
  end
  begin
     id 4 
     name lfoot
     direction 0.028254 -0.0776273 0.996582   
     length 1.66799   
     axis -90 7.62852e-016 20   XYZ
    dof rx rz
    limits (-45.0 90.0)
           (-70.0 20.0)
  end
  begin
     id 5 
     name ltoes
     direction 1.53483e-011 -4.21688e-011 1   
     length 0.851674   
     axis -90 7.62852e-016 20   XYZ
    dof rx
    limits (-90.0 20.0)
  end
  begin
     id 6 
     name rhipjoint
     direction -0.822466 -0.411836 0.392353   
     length 3.81764  
     axis 0 0 0  XYZ 
  end
  begin
     id 7 
     name rfemur
     direction -0.34202 -0.939693 0   
     length 6.28636   
     axis 0 0 -20   XYZ
    dof rx ry rz
    limits (-160.0 20.0)
           (-70.0 70.0)
           (-70.0 60.0)
  end
  begin
     id 8 
     name rtibia
     direction -0.34202 -0.939693 0   
     length 6.85621   
     axis 0 0 -20   XYZ
    dof rx
    limits (-10.0 170.0)
 end
 begin
     id 9 
     name rfoot
     direction -0.0553036 -0.151945 0.98684   
     length 1.57293  
     axis -90 -7.62852e-016 -20   XYZ
    dof rx rz
    limits (-45.0 90.0)
           (-20.0 70.0)
  end
  begin
     id 10 
     name rtoes
     direction -1.53592e-011 -4.21964e-011 1   
     length 0.802812   
     axis -90 -7.62852e-016 -20   XYZ
    dof rx
    limits (-90.0 20.0)
  end
  begin
     id 11 
     name lowerback
     direction 0.00654913 0.996475 -0.0836396   
     length 1.97212   
     axis 0 0 0   XYZ
    dof rx ry rz
    limits (-20.0 45.0)
           (-30.0 30.0)
           (-30.0 30.0)
  end
  begin
     id 12 
     name upperback
     direction 0.0111875 0.994527 0.103877   
     length 1.89704   
     axis 0 0 0   XYZ
    dof rx ry rz
    limits (-20.0 45.0)
           (-30.0 30.0)
           (-30.0 30.0)
  end
  begin
     id 13 
     name thorax
     direction 0.00473652 0.989004 0.147814   
     length 1.94516   
     axis 0 0 0   XYZ
    dof rx ry rz
    limits (-20.0 45.0)
           (-30.0 30.0)
           (-30.0 30.0)
  end
  begin
     id 14 
     name lowerneck
     direction -0.00925808 0.999011 0.0434791   
     length 1.81771   
     axis 0 0 0   XYZ
    dof rx ry rz
    limits (-20.0 45.0)
           (-30.0 30.0)
           (-30.0 30.0)
  end
  begin
     id 15 
     name upperneck
     direction 0.00451595 0.964412 -0.264365   
     length 1.80434   
     axis 0 0 0   XYZ
    dof rx ry rz
    limits (-20.0 45.0)
           (-30.0 30.0)
           (-30.0 30.0)
  end
  begin
     id 16
     name head
     direction -0.00110849 0.995756 -0.0920241  
     length 1.84006  
     axis 0 0 0   XYZ
    dof rx ry rz
    limits (-20.0 45.0)
           (-30.0 30.0)
           (-30.0 30.0)
  end
  begin
     id 17 
     name lclavicle
     direction 0.921253 0.385213 0.0538957  
     length 3.67415  
     axis 0 0 0   XYZ
    dof ry rz
    limits (-20.0 10.0)
           (0.0 20.0)
  end
  begin
     id 18 
     name lhumerus
     direction 1 -4.48961e-011 6.73441e-028   
     length 4.32712   
     axis 180 -30 -90   XYZ
    dof rx ry rz
    limits (-60.0 90.0)
           (-90.0 90.0)
           (-90.0 90.0)
  end
  begin
     id 19
     name lradius
     direction 1 -4.48985e-011 -9.53507e-028   
     length 3.28587   
     axis 180 -30 -90   XYZ
    dof rx
    limits (-10.0 170.0)
  end
  begin
     id 20
     name lwrist
     direction 1 -4.48951e-011 -4.67472e-027   
     length 1.64293   
     axis 1.65735e-015 90 90   XYZ
    dof ry
    limits (-180.0 0.0)
 end
  begin
     id 21 
     name lhand
     direction 1 -4.48946e-011 -9.34945e-027   
     length 0.433158   
     axis 5.96574e-015 90 90   XYZ
    dof rx rz
    limits (-90.0 90.0)
           (-45.0 45.0)
  end
  begin
     id 22 
     name lfingers
     direction 1 -4.48882e-011 -1.86989e-026   
     length 0.349224   
     axis 1.19315e-014 90 90   XYZ
    dof rx
    limits (0.0 90.0)
  end
  begin
     id 23
     name lthumb
     direction 0.707107 -6.3493e-011 0.707107   
     length 0.501417   
     axis -90 45 2.85299e-015   XYZ
    dof rx rz
    limits (-45.0 45.0)
           (-45.0 45.0)
  end
  begin
     id 24 
     name rclavicle
     direction -0.884378 0.46502 -0.0403866   
     length 3.50218  
     axis 0 0 0   XYZ 
    dof ry rz
    limits (-10.0 20.0)
           (-20.0 0.0)
  end
  begin
     id 25 
     name rhumerus
     direction -1 -4.48964e-011 1.58188e-027  
     length 4.29104   
     axis 180 30 90   XYZ
    dof rx ry rz
    limits (-90.0 60.0)
           (-90.0 90.0)
           (-90.0 90.0)
  end
  begin
     id 26 
     name rradius
     direction -1 -4.48978e-011 -1.9722e-027   
     length 3.2272   
     axis 180 30 90   XYZ
    dof rx
    limits (-10.0 170.0)
  end
  begin
     id 27 
     name rwrist
     direction -1 -4.48969e-011 -4.67472e-027   
     length 1.6136   
     axis 1.65735e-015 -90 -90   XYZ
    dof ry
    limits (-180.0 0.0)
  end
  begin
     id 28
     name rhand
     direction -1 -4.48846e-011 -9.34945e-027   
     length 0.543623   
     axis 5.96574e-015 -90 -90   XYZ
    dof rx rz
    limits (-90.0 90.0)
           (-45.0 45.0)
  end
  begin
     id 29
     name rfingers
     direction -1 -4.49074e-011 -1.86989e-026   
     length 0.438283   
     axis 1.19315e-014 -90 -90   XYZ
    dof rx
    limits (0.0 90.0)
  end
  begin
     id 30
     name rthumb
     direction -0.707107 -6.34834e-011 0.707107   
     length 0.629289   
     axis -90 -45 -2.85299e-015   XYZ
    dof rx rz
    limits (-45.0 45.0)
           (-45.0 45.0)
  end
:hierarchy
  begin
    root lhipjoint rhipjoint lowerback
    lhipjoint lfemur
    lfemur ltibia
    ltibia lfoot
    lfoot ltoes
    rhipjoint rfemur
    rfemur rtibia
    rtibia rfoot
    rfoot rtoes
    lowerback upperback
    upperback thorax
    thorax lowerneck lclavicle rclavicle
    lowerneck upperneck
    upperneck head
    lclavicle lhumerus
    lhumerus lradius
    lradius lwrist
    lwrist lhand lthumb
    lhand lfingers
    rclavicle rhumerus
    rhumerus rradius
    rradius rwrist
    rwrist rhand rthumb
    rhand rfingers
  end

#!OML:ASF H:\GeneralSubjects\Female5\Project 1\Capture day 1\Session 1\Female5.ASF
:FULLY-SPECIFIED
:DEGREES
16
root -40.1813 16.2811 1.42258 -46.2257 84.9489 -58.1026
lowerback 10.5254 0.872226 0.733037
upperback -13.1192 2.57195 3.38684
thorax -21.7024 1.68481 2.82988
lowerneck -18.3214 3.13132 4.61904
upperneck 40.856 7.45478 -5.32428
head 19.1388 3.58474 -1.58475
rclavicle 1.22253e-014 -4.53229e-014
rhumerus -60.846 21.9431 -92.2583
rradius 36.1818
rwrist -10.2648
rhand -28.985 -19.3732
rfingers 7.12502
rthumb -2.33724 -49.3402
lclavicle 1.22253e-014 -4.53229e-014
lhumerus -51.7295 -1.58964 80.7117
lradius 33.2092
lwrist -3.66215
lhand -25.1731 31.0309
lfingers 7.12502
lthumb 1.34434 61.0064
rfemur 2.99256 29.3691 35.4409
rtibia -10.7989
rfoot -16.6051 -28.8189
rtoes -0.264419
lfemur -2.0823 -29.0017 -25.8543
ltibia 1.73251
lfoot -38.5762 -1.54904
ltoes -17.6483
17
root -40.1797 16.2789 1.41324 -45.4795 85.024 -57.2892
lowerback 10.7007 0.904834 0.545808
upperback -13.2111 2.58981 3.35743
thorax -21.97 1.72386 2.89486
lowerneck -18.3007 3.01992 4.6558
upperneck 40.9274 7.29315 -5.36399
head 19.168 3.52556 -1.64679
rclavicle 6.4605e-015 4.05521e-014
rhumerus -61.0961 21.6393 -92.0281
rradius 36.0699
rwrist -10.0568
rhand -28.6853 -18.8845
rfingers 7.12502
rthumb -2.04773 -48.8544
lclavicle 6.4605e-015 4.05521e-014
lhumerus -52.0047 -1.57158 80.6819
lradius 33.1544
lwrist -3.76968
lhand -25.1029 31.0927
lfingers 7.12502
lthumb 1.41222 61.0677
rfemur 3.08042 29.3437 35.3299
rtibia -10.8357
rfoot -16.6356 -28.735
rtoes -0.619837
lfemur -1.88594 -29.1083 -26.0915
ltibia 1.66801
lfoot -38.6559 -2.63602
ltoes -16.5546
18
root -40.1823 16.2773 1.40395 -45.3627 85.0185 -57.1578
lowerback 10.7166 0.890889 0.438185
upperback -13.1954 2.55394 3.40201
thorax -21.9661 1.73091 3.01966
lowerneck -18.4482 2.98777 4.63748
upperneck 40.9326 7.23891 -5.38097
head 19.2082 3.49174 -1.66239
rclavicle -2.32578e-014 2.46493e-014
rhumerus -61.038 21.5512 -91.8214
rradius 35.927
rwrist -9.98917
rhand -28.633 -19.2172
rfingers 7.12502
rthumb -1.99729 -49.1876
lclavicle -2.32578e-014 2.46493e-014
lhumerus -52.0692 -1.41027 80.6362
lradius 33.0914
lwrist -3.81211
lhand -25.1371 31.0676
lfingers 7.12502
lthumb 1.37916 61.0429
rfemur 3.0066 29.3449 35.2696
rtibia -10.744
rfoot -16.7446 -28.6923
rtoes -1.15767
lfemur -1.82174 -28.7599 -26.1258
ltibia 1.59851
lfoot -38.2017 -4.2223
ltoes -13.419
19
root -40.1857 16.2757 1.39472 -46.0912 84.9358 -57.8831
lowerback 10.6441 0.84656 0.542328
upperback -13.0965 2.50461 3.43985
thorax -21.7661 1.69149 3.02005
lowerneck -18.6774 3.04946 4.74518
upperneck 40.8608 7.32676 -5.53497
head 19.2534 3.50871 -1.7347
rclavicle 7.05686e-015 3.65764e-014
rhumerus -60.8027 21.6705 -91.8169
rradius 35.8374
rwrist -10.1261
rhand -28.6594 -19.5403
rfingers 7.12502
rthumb -2.02275 -49.5105
lclavicle 7.05686e-015 3.65764e-014
lhumerus -51.884 -1.13078 80.4467
lradius 32.8866
lwrist -3.95714
lhand -25.1598 31.0317
lfingers 7.12502
lthumb 1.35719 61.0072
rfemur 2.91074 29.3468 35.3138
rtibia -10.6234
rfoot -16.7805 -28.7154
rtoes -1.56914
lfemur -1.83532 -28.6042 -26.0217
ltibia 1.57909
lfoot -38.0357 -4.75667
ltoes -12.421
20
root -40.1868 16.2743 1.38459 -46.5222 84.852 -58.2629
lowerback 10.5113 0.868282 0.754332
upperback -12.9349 2.53702 3.36613
thorax -21.4248 1.6512 2.80066
lowerneck -18.9379 3.11926 4.86873
upperneck 40.7758 7.37089 -5.58951
head 19.2885 3.52297 -1.77032
rclavicle 1.64991e-014 -4.77083e-015
rhumerus -60.4486 21.5093 -91.7121
rradius 35.83
rwrist -10.1779
rhand -28.5959 -19.4741
rfingers 7.12502
rthumb -1.96146 -49.4448
lclavicle 1.64991e-014 -4.77083e-015
lhumerus -51.5182 -1.11244 80.2682
lradius 32.6136
lwrist -4.05826
lhand -25.2562 31.2035
lfingers 7.12502
lthumb 1.26409 61.1795
rfemur 2.98703 29.3539 35.396
rtibia -10.6594
rfoot -16.6892 -28.8017
rtoes -1.05961
lfemur -1.70801 -28.7259 -26.0376
ltibia 1.55553
lfoot -38.1566 -5.23538
ltoes -11.9994
21
root -40.1888 16.2737 1.37306 -46.1083 84.8656 -57.807
lowerback 10.8138 0.87688 0.706126
upperback -13.0935 2.56799 3.35478
thorax -21.8737 1.68031 2.80597
lowerneck -18.7165 3.13008 4.83593
upperneck 40.9135 7.41143 -5.48908
head 19.3074 3.56371 -1.70932
rclavicle -1.04362e-014 4.25399e-014
rhumerus -60.8266 21.3447 -91.7103
rradius 35.8002
rwrist -10.0616
rhand -28.5116 -19.3806
rfingers 7.12502
rthumb -1.88006 -49.3521
lclavicle -1.04362e-014 4.25399e-014
lhumerus -51.9458 -1.14201 80.2504
lradius 32.4446
lwrist -4.13376
lhand -25.2217 31.7288
lfingers 7.12502
lthumb 1.29747 61.7046
rfemur 3.05635 29.347 35.3262
rtibia -10.7197
rfoot -16.5687 -28.9079
rtoes -0.707416
lfemur -1.51153 -28.9186 -26.2167
ltibia 1.39872
lfoot -38.3368 -5.72053
ltoes -11.2108
22
root -40.1919 16.2741 1.3639 -45.9627 84.851 -57.6836
lowerback 10.761 0.899162 0.678586
upperback -13.1223 2.59936 3.36583
thorax -21.8811 1.7021 2.82618
lowerneck -18.6586 3.08345 4.67412
upperneck 40.9961 7.30821 -5.24078
head 19.3056 3.53635 -1.58318
rclavicle -1.56046e-014 3.57812e-015
rhumerus -60.7794 21.2388 -91.6797
rradius 35.5537
rwrist -10.0158
rhand -28.5483 -19.1949
rfingers 7.12502
rthumb -1.91543 -49.1661
lclavicle -1.56046e-014 3.57812e-015
lhumerus -52.0829 -1.15159 80.2483
lradius 32.2391
lwrist -4.24594
lhand -25.191 32.4506
lfingers 7.12502
lthumb 1.32712 62.4262
rfemur 2.97089 29.3616 35.2642
rtibia -10.6572
rfoot -16.3088 -29.1253
rtoes -1.92785
lfemur -1.42952 -29.0531 -26.2486
ltibia 1.19781
lfoot -38.3852 -6.04737
ltoes -10.5619
23
root -40.1942 16.2741 1.35546 -46.5791 84.7216 -58.3559
lowerback 10.7216 0.973279 0.967761
upperback -13.2291 2.75717 3.24374
thorax -21.9891 1.71384 2.47123
lowerneck -18.4848 2.96962 4.55242
upperneck 41.1272 7.04689 -4.87388
head 19.2818 3.47688 -1.44268
rclavicle 5.86415e-015 5.1684e-015
rhumerus -60.8766 20.7371 -91.7011
rradius 35.3243
rwrist -9.91281
rhand -28.6926 -18.9304
rfingers 7.12502
rthumb -2.05479 -48.9003
lclavicle 5.86415e-015 5.1684e-015
lhumerus -52.3341 -1.57467 80.2147
lradius 32.0921
lwrist -4.28227
lhand -25.2886 32.5411
lfingers 7.12502
lthumb 1.23283 62.5173
rfemur 2.80355 29.4167 35.3437
rtibia -10.4916
rfoot -16.2598 -29.0767
rtoes -2.54341
lfemur -1.4415 -29.1826 -26.0837
ltibia 1.10068
lfoot -38.4329 -6.20277
ltoes -10.7167
24
root -40.1951 16.2724 1.34647 -47.0637 84.5998 -58.8625
lowerback 10.6956 0.985904 1.15942
upperback -13.2611 2.81917 3.23421
thorax -22.0087 1.71099 2.33449
lowerneck -18.4298 2.9827 4.51911
upperneck 41.1413 7.05129 -4.7876
head 19.2674 3.48824 -1.39426
rclavicle 7.65321e-015 -8.74653e-015
rhumerus -60.9341 20.5813 -91.7115
rradius 35.2311
rwrist -9.746
rhand -28.8737 -19.1661
rfingers 7.12502
rthumb -2.22976 -49.1342
lclavicle 7.65321e-015 -8.74653e-015
lhumerus -52.4984 -1.65282 80.1381
lradius 31.935
lwrist -4.31212
lhand -25.276 31.8253
lfingers 7.12502
lthumb 1.24497 61.8014
rfemur 2.70236 29.4682 35.4438
rtibia -10.333
rfoot -16.5367 -28.7005
rtoes -1.55026
lfemur -1.28168 -29.5113 -26.0224
ltibia 0.891115
lfoot -38.7204 -6.28554
ltoes -11.0176
25
root -40.1947 16.2701 1.33804 -46.9937 84.5516 -58.7818
lowerback 10.5688 0.955909 1.11801
upperback -13.1948 2.77495 3.33512
thorax -21.8301 1.70997 2.49293
lowerneck -18.4317 3.03438 4.52543
upperneck 41.0692 7.17376 -4.91056
head 19.2424 3.51749 -1.42828
rclavicle 1.88845e-015 -3.65764e-014
rhumerus -60.9435 20.8132 -91.6894
rradius 35.3468
rwrist -9.79921
rhand -28.9172 -19.5587
rfingers 7.12502
rthumb -2.27173 -49.5263
lclavicle 1.88845e-015 -3.65764e-014
lhumerus -52.4748 -1.31276 79.9998
lradius 31.7033
lwrist -4.41239
lhand -25.0628 31.2235
lfingers 7.12502
lthumb 1.45093 61.1983
rfemur 2.67983 29.4969 35.4573
rtibia -10.2612
rfoot -16.7186 -28.4586
rtoes -0.278322
lfemur -1.00378 -29.9143 -26.1192
ltibia 0.548508
lfoot -39.0048 -6.38014
ltoes -10.326
